<svg width="50" height="51" viewBox="0 0 50 51" fill="none" xmlns="http://www.w3.org/2000/svg">
<g id="wpf:mac-os" clip-path="url(#clip0_1_244)">
<path id="Vector" d="M46.0269 36.6315C44.8769 39.1777 44.3269 40.3161 42.85 42.5661C40.7865 45.7084 37.8731 49.6296 34.2712 49.6565C31.0673 49.6834 30.2404 47.5661 25.8923 47.6007C21.5442 47.6219 20.6385 49.695 17.4308 49.6623C13.8288 49.6296 11.0712 46.0969 9.00577 42.9604C3.23077 34.1623 2.62115 23.8507 6.19038 18.3642C8.71538 14.4738 12.7115 12.1892 16.4635 12.1892C20.2846 12.1892 22.6865 14.2892 25.8462 14.2892C28.9115 14.2892 30.7788 12.1834 35.1981 12.1834C38.5404 12.1834 42.075 14.0046 44.6 17.1469C36.3385 21.6738 37.6808 33.4738 46.0269 36.6315ZM31.8442 8.67189C33.4519 6.60843 34.6712 3.69689 34.2288 0.727661C31.6058 0.906507 28.5385 2.58151 26.7462 4.75074C25.1231 6.72574 23.7769 9.66035 24.3019 12.4988C27.1635 12.5911 30.125 10.8854 31.8442 8.67189Z" fill="#EF3959"/>
</g>
<defs>
<clipPath id="clip0_1_244">
<rect width="50" height="50" fill="white" transform="translate(0 0.194946)"/>
</clipPath>
</defs>
</svg>
