<svg width="50" height="51" viewBox="0 0 50 51" fill="none" xmlns="http://www.w3.org/2000/svg">
<g id="uil:linux">
<path id="Vector" d="M41.0417 36.8616C40.8333 36.445 40.625 36.0283 40.625 35.6116C40.625 34.7783 40.2083 34.1533 39.5833 33.5283C39.375 33.32 38.9583 33.1116 38.75 33.1116C40 29.3616 38.125 25.6116 36.0417 22.9033C34.375 20.4033 31.875 18.5283 32.0833 15.195C32.0833 11.2366 32.5 3.94496 25.2083 4.56996C17.7083 4.98662 19.7917 12.695 19.5833 15.4033C19.5833 17.695 18.5417 19.9866 16.875 21.8616C16.4583 22.2783 16.0417 22.9033 15.8333 23.32C13.75 25.82 12.7083 29.1533 12.7083 32.2783C12.2917 32.695 11.875 33.1116 11.6667 33.5283C11.4583 33.7366 11.25 33.945 11.25 34.1533C11.0417 34.3616 10.625 34.57 10.2083 34.7783C9.375 34.9866 8.75 35.4033 8.33333 36.2366C8.125 36.8616 7.91667 37.695 8.125 38.5283C8.33333 38.945 8.33333 39.3616 8.125 39.9866C7.70833 40.82 7.70833 41.8616 8.125 42.9033C8.75 43.7366 9.79167 43.945 11.25 44.1533C12.2917 44.1533 13.5417 44.57 14.5833 44.9866C15.625 45.6116 16.875 46.0283 18.125 46.0283C18.75 46.0283 19.5833 45.8199 20.2083 45.6116C20.8333 45.1949 21.25 44.7783 21.4583 44.1533C22.2917 44.1533 23.5417 43.7366 25 43.7366C26.25 43.7366 27.5 44.1533 29.1667 43.945C29.1667 44.1533 29.1667 44.3616 29.375 44.5699C29.7917 45.6116 30.8333 46.4449 32.0833 46.6533H32.5C34.1667 46.4449 35.8333 45.6116 36.875 44.3616C37.7083 43.5283 38.75 42.9033 39.7917 42.4866C41.0417 41.8616 41.875 41.445 42.0833 40.4033C42.2917 38.945 41.875 38.1116 41.0417 36.8616ZM26.6667 10.195C27.9167 10.4033 28.9583 11.445 28.75 12.695C28.75 13.32 28.5417 13.945 28.125 14.57H27.9167C27.5 14.3616 27.2917 14.3616 27.0833 14.1533C27.2917 13.945 27.2917 13.5283 27.5 13.1116C27.5 12.2783 27.0833 11.6533 26.6667 11.6533C26.0417 11.6533 25.625 12.2783 25.625 13.1116V13.32C25.4167 13.1116 25 13.1116 24.7917 12.9033V12.695C24.5833 11.6533 25.4167 10.4033 26.6667 10.195ZM26.0417 14.3616C26.25 14.57 26.6667 14.7783 26.875 14.7783C27.0833 14.7783 27.5 14.9866 27.7083 15.195C28.125 15.4033 28.5417 15.6116 28.5417 16.2366C28.5417 16.8616 27.9167 17.4866 26.6667 17.9033C26.25 18.1116 26.0417 18.1116 25.8333 18.32C25.2083 18.7366 24.5833 18.945 23.75 18.945C23.125 18.945 22.5 18.5283 22.0833 18.1116C21.875 17.9033 21.6667 17.695 21.25 17.4866C21.0417 17.2783 20.625 16.8616 20.4167 16.2366C20.4167 16.0283 20.625 15.82 20.8333 15.6116C21.4583 15.195 21.6667 14.9866 21.875 14.7783L22.0833 14.57C22.5 13.945 23.3333 13.5283 24.1667 13.5283C24.7917 13.7366 25.4167 13.945 26.0417 14.3616ZM21.6667 10.6116C22.5 10.6116 23.125 11.445 23.3333 12.9033V13.32C23.125 13.32 22.7083 13.5283 22.5 13.7366V13.32C22.5 12.695 22.0833 12.07 21.6667 12.2783C21.25 12.2783 21.0417 12.9033 21.0417 13.5283C21.0417 13.945 21.25 14.1533 21.4583 14.3616C21.4583 14.3616 21.25 14.57 21.0417 14.57C20.625 14.1533 20.2083 13.5283 20.2083 12.9033C20.2083 11.6533 20.8333 10.6116 21.6667 10.6116ZM19.5833 44.1533C18.125 44.7783 16.25 44.57 15 43.7366C13.75 43.1116 12.7083 42.9033 11.25 42.9033C10.2083 42.695 9.16667 42.695 8.95833 42.2783C8.75 41.8616 8.75 41.2366 9.16667 40.195C9.375 39.57 9.375 38.945 9.16667 38.32C8.95833 37.695 8.95833 37.2783 9.16667 36.6533C9.375 36.0283 9.79167 35.82 10.4167 35.6116C11.0417 35.4033 11.4583 35.195 11.875 34.7783C12.0833 34.57 12.2917 34.3616 12.5 33.945C13.125 33.1116 13.5417 32.695 14.1667 32.695C15.4167 32.9033 16.4583 34.7783 17.2917 36.6533C17.7083 37.2783 18.125 38.1116 18.75 38.7366C19.5833 39.7783 20.625 41.2366 20.625 42.07C20.625 43.1116 20.2083 43.7366 19.5833 44.1533ZM29.7917 39.57C29.7917 39.7783 29.7917 39.7783 29.5833 39.9866C27.0833 41.8616 23.75 42.07 21.0417 40.6116L19.7917 38.7366C21.6667 38.5283 21.25 36.0283 17.2917 33.5283C13.125 30.82 16.0417 25.82 17.5 23.5283C17.7083 23.32 17.7083 23.5283 16.875 25.195C16.25 26.445 15 29.57 16.6667 31.8616C16.6667 30.195 17.0833 28.5283 17.7083 26.8616C19.1667 24.1533 20.2083 21.0283 20.8333 17.9033C21.0417 18.1116 21.0417 18.1116 21.25 18.1116C21.4583 18.32 21.6667 18.5283 21.875 18.5283C22.2917 19.1533 23.125 19.3616 23.75 19.3616H23.9583C24.7917 19.3616 25.625 19.1533 26.25 18.5283C26.4583 18.32 26.6667 18.1116 27.0833 18.1116C27.7083 17.9033 28.3333 17.4866 28.9583 16.8616C29.7917 19.57 30.625 22.07 31.875 24.3616C32.7083 26.0283 33.3333 27.695 33.75 29.57C34.375 29.57 35.2083 29.7783 35.8333 30.195C37.5 31.0283 38.125 31.6533 37.9167 32.695H37.5C37.5 32.07 37.0833 31.445 35.625 30.82C34.1667 30.195 32.9167 30.195 32.5 31.6533C32.2917 31.6533 32.0833 31.8616 31.875 31.8616C30.2083 32.695 30.2083 34.9866 30 37.2783C30.2083 38.1116 30 38.7366 29.7917 39.57ZM39.375 40.82C38.125 41.2366 37.0833 42.07 36.25 43.1116C35.4167 44.3616 33.9583 45.195 32.2917 44.9866C31.4583 44.9866 30.625 44.3616 30.4167 43.5283C30.2083 42.2783 30.2083 41.0283 30.8333 39.7783C31.0417 38.945 31.25 38.32 31.4583 37.4866C31.6667 34.9866 31.6667 33.5283 32.7083 32.9033C32.7083 33.945 33.3333 34.57 34.1667 34.9866C35.2083 34.9866 36.25 34.7783 37.0833 33.945H37.5C38.125 33.945 38.5417 33.945 38.9583 34.3616C39.375 34.7783 39.5833 35.4033 39.5833 35.82C39.5833 36.445 40 37.07 40.2083 37.695C41.25 38.7366 41.25 39.3616 41.25 39.57C41.0417 39.9866 40.2083 40.4033 39.375 40.82ZM20.625 15.82C20.4167 15.82 20.4167 15.82 20.4167 16.0283C20.4167 16.0283 20.4167 16.2366 20.625 16.2366C20.8333 16.2366 20.8333 16.445 20.8333 16.445C21.4583 17.2783 22.5 17.695 23.75 17.9033C24.7917 17.695 25.8333 17.4866 26.875 16.6533L28.125 16.0283C28.3333 16.0283 28.3333 15.82 28.3333 15.82C28.3333 15.6116 28.3333 15.6116 28.125 15.6116C27.7083 15.82 27.0833 16.0283 26.6667 16.2366C25.8333 16.8616 24.7917 17.2783 23.75 17.2783C22.7083 17.2783 21.875 16.6533 21.25 16.0283C21.0417 16.0283 20.8333 15.82 20.625 15.82Z" fill="#0D224E"/>
</g>
</svg>
