<svg width="50" height="51" viewBox="0 0 50 51" fill="none" xmlns="http://www.w3.org/2000/svg">
<g id="simple-icons:ios">
<path id="Vector" d="M2.29167 12.7991C1.0125 12.7991 3.30853e-08 13.7991 3.30853e-08 15.0491C-5.12425e-05 15.3481 0.0594981 15.6441 0.175168 15.9198C0.290838 16.1956 0.460307 16.4455 0.673672 16.655C0.887037 16.8645 1.14002 17.0293 1.41783 17.1399C1.69564 17.2505 1.9927 17.3046 2.29167 17.2991C3.58333 17.2991 4.60417 16.2991 4.60417 15.0491C4.60417 13.7991 3.58333 12.7991 2.29167 12.7991ZM18.1458 12.8407C11.1458 12.8407 6.77083 17.6116 6.77083 25.1949C6.77083 32.8407 11.1458 37.5907 18.1458 37.5907C25.1042 37.5907 29.5 32.8407 29.5 25.1949C29.5 17.6116 25.1042 12.8407 18.1458 12.8407ZM40.7292 12.8407C35.5208 12.8407 31.8125 15.7157 31.8125 19.9866C31.8125 23.3824 33.9167 25.5074 38.3333 26.5282L41.4375 27.2782C44.4583 27.9657 45.6875 28.9657 45.6875 30.6949C45.6875 32.6949 43.6667 34.1116 40.7917 34.1116C37.8542 34.1116 35.6458 32.6741 35.4167 30.4657H31.25C31.4167 34.8824 35.0417 37.5907 40.5417 37.5907C46.3542 37.5907 50 34.7366 50 30.1949C50 26.6324 47.9167 24.6116 43.0833 23.5074L40.3125 22.8824C37.375 22.1741 36.1667 21.2366 36.1667 19.6532C36.1667 17.6532 38 16.3199 40.7083 16.3199C43.4375 16.3199 45.3125 17.6741 45.5208 19.9032H49.6042C49.5 15.6949 46.0208 12.8407 40.7292 12.8407ZM18.1458 16.4866C22.3958 16.4866 25.125 19.8824 25.125 25.1949C25.125 30.5491 22.3958 33.9449 18.1458 33.9449C13.8542 33.9449 11.1458 30.5491 11.1458 25.1949C11.1458 19.8824 13.8542 16.4866 18.1458 16.4866ZM0.23125 19.5907V37.1949H4.375V19.5907H0.229167H0.23125Z" fill="#0D224E"/>
</g>
</svg>
