<svg width="192" height="192" viewBox="0 0 192 192" fill="none" xmlns="http://www.w3.org/2000/svg">
<circle cx="96" cy="96" r="95.5" fill="#EF3959" stroke="url(#paint0_linear_1_150)"/>
<path d="M61.9557 66H59.3137C59.1574 65.2401 58.884 64.5724 58.4933 63.9972C58.1098 63.4219 57.6411 62.9389 57.0871 62.5483C56.5402 62.1506 55.933 61.8523 55.2654 61.6534C54.5977 61.4545 53.9017 61.3551 53.1773 61.3551C51.8563 61.3551 50.6595 61.6889 49.5871 62.3565C48.5218 63.0241 47.673 64.0078 47.0409 65.3075C46.4159 66.6072 46.1034 68.2017 46.1034 70.0909C46.1034 71.9801 46.4159 73.5746 47.0409 74.8743C47.673 76.174 48.5218 77.1577 49.5871 77.8253C50.6595 78.4929 51.8563 78.8267 53.1773 78.8267C53.9017 78.8267 54.5977 78.7273 55.2654 78.5284C55.933 78.3295 56.5402 78.0348 57.0871 77.6442C57.6411 77.2464 58.1098 76.7599 58.4933 76.1847C58.884 75.6023 59.1574 74.9347 59.3137 74.1818H61.9557C61.7568 75.2969 61.3946 76.2947 60.8691 77.1754C60.3435 78.0561 59.6901 78.8054 58.9088 79.4233C58.1276 80.0341 57.2504 80.4993 56.2774 80.8189C55.3115 81.1385 54.2781 81.2983 53.1773 81.2983C51.3165 81.2983 49.6617 80.8438 48.2128 79.9347C46.7639 79.0256 45.624 77.733 44.7931 76.0568C43.9621 74.3807 43.5466 72.392 43.5466 70.0909C43.5466 67.7898 43.9621 65.8011 44.7931 64.125C45.624 62.4489 46.7639 61.1562 48.2128 60.2472C49.6617 59.3381 51.3165 58.8835 53.1773 58.8835C54.2781 58.8835 55.3115 59.0433 56.2774 59.3629C57.2504 59.6825 58.1276 60.1513 58.9088 60.7692C59.6901 61.38 60.3435 62.1257 60.8691 63.0064C61.3946 63.88 61.7568 64.8778 61.9557 66ZM68.3983 71.1562V81H65.8841V59.1818H68.3983V67.1932H68.6114C68.9949 66.348 69.5702 65.6768 70.3373 65.1797C71.1114 64.6754 72.1412 64.4233 73.4268 64.4233C74.5418 64.4233 75.5184 64.647 76.3564 65.0945C77.1945 65.5348 77.8444 66.2131 78.306 67.1293C78.7748 68.0384 79.0091 69.196 79.0091 70.6023V81H76.4949V70.7727C76.4949 69.473 76.1576 68.468 75.4829 67.7578C74.8153 67.0405 73.8884 66.6818 72.7023 66.6818C71.8785 66.6818 71.1398 66.8558 70.4864 67.2038C69.8401 67.5518 69.3287 68.0597 68.9523 68.7273C68.583 69.3949 68.3983 70.2045 68.3983 71.1562ZM90.2565 81.3409C88.7792 81.3409 87.483 80.9893 86.368 80.2862C85.26 79.5831 84.3936 78.5994 83.7686 77.3352C83.1507 76.071 82.8417 74.5937 82.8417 72.9034C82.8417 71.1989 83.1507 69.7109 83.7686 68.4396C84.3936 67.1683 85.26 66.1811 86.368 65.478C87.483 64.7749 88.7792 64.4233 90.2565 64.4233C91.7338 64.4233 93.0264 64.7749 94.1343 65.478C95.2494 66.1811 96.1159 67.1683 96.7338 68.4396C97.3588 69.7109 97.6713 71.1989 97.6713 72.9034C97.6713 74.5937 97.3588 76.071 96.7338 77.3352C96.1159 78.5994 95.2494 79.5831 94.1343 80.2862C93.0264 80.9893 91.7338 81.3409 90.2565 81.3409ZM90.2565 79.0824C91.3786 79.0824 92.3019 78.7947 93.0264 78.2195C93.7508 77.6442 94.287 76.8878 94.635 75.9503C94.983 75.0128 95.157 73.9972 95.157 72.9034C95.157 71.8097 94.983 70.7905 94.635 69.8459C94.287 68.9013 93.7508 68.1378 93.0264 67.5554C92.3019 66.973 91.3786 66.6818 90.2565 66.6818C89.1343 66.6818 88.211 66.973 87.4866 67.5554C86.7622 68.1378 86.2259 68.9013 85.8779 69.8459C85.5299 70.7905 85.3559 71.8097 85.3559 72.9034C85.3559 73.9972 85.5299 75.0128 85.8779 75.9503C86.2259 76.8878 86.7622 77.6442 87.4866 78.2195C88.211 78.7947 89.1343 79.0824 90.2565 79.0824ZM108.157 81.3409C106.68 81.3409 105.383 80.9893 104.268 80.2862C103.16 79.5831 102.294 78.5994 101.669 77.3352C101.051 76.071 100.742 74.5937 100.742 72.9034C100.742 71.1989 101.051 69.7109 101.669 68.4396C102.294 67.1683 103.16 66.1811 104.268 65.478C105.383 64.7749 106.68 64.4233 108.157 64.4233C109.634 64.4233 110.927 64.7749 112.035 65.478C113.15 66.1811 114.016 67.1683 114.634 68.4396C115.259 69.7109 115.572 71.1989 115.572 72.9034C115.572 74.5937 115.259 76.071 114.634 77.3352C114.016 78.5994 113.15 79.5831 112.035 80.2862C110.927 80.9893 109.634 81.3409 108.157 81.3409ZM108.157 79.0824C109.279 79.0824 110.202 78.7947 110.927 78.2195C111.651 77.6442 112.187 76.8878 112.535 75.9503C112.883 75.0128 113.057 73.9972 113.057 72.9034C113.057 71.8097 112.883 70.7905 112.535 69.8459C112.187 68.9013 111.651 68.1378 110.927 67.5554C110.202 66.973 109.279 66.6818 108.157 66.6818C107.035 66.6818 106.111 66.973 105.387 67.5554C104.663 68.1378 104.126 68.9013 103.778 69.8459C103.43 70.7905 103.256 71.8097 103.256 72.9034C103.256 73.9972 103.43 75.0128 103.778 75.9503C104.126 76.8878 104.663 77.6442 105.387 78.2195C106.111 78.7947 107.035 79.0824 108.157 79.0824ZM131 68.3011L128.742 68.9403C128.6 68.5639 128.39 68.1982 128.113 67.843C127.843 67.4808 127.474 67.1825 127.005 66.9482C126.537 66.7138 125.937 66.5966 125.205 66.5966C124.204 66.5966 123.369 66.8274 122.701 67.2891C122.041 67.7436 121.711 68.3224 121.711 69.0256C121.711 69.6506 121.938 70.1442 122.392 70.5064C122.847 70.8686 123.557 71.1705 124.523 71.4119L126.952 72.0085C128.415 72.3636 129.505 72.907 130.223 73.6385C130.94 74.3629 131.299 75.2969 131.299 76.4403C131.299 77.3778 131.029 78.2159 130.489 78.9545C129.956 79.6932 129.211 80.2756 128.252 80.7017C127.293 81.1278 126.178 81.3409 124.907 81.3409C123.238 81.3409 121.856 80.9787 120.763 80.2543C119.669 79.5298 118.976 78.4716 118.685 77.0795L121.071 76.483C121.299 77.3636 121.728 78.0241 122.361 78.4645C123 78.9048 123.834 79.125 124.864 79.125C126.036 79.125 126.966 78.8764 127.655 78.3793C128.351 77.875 128.699 77.2713 128.699 76.5682C128.699 76 128.5 75.5241 128.103 75.1406C127.705 74.75 127.094 74.4588 126.27 74.267L123.543 73.6278C122.044 73.2727 120.944 72.7223 120.241 71.9766C119.544 71.2237 119.196 70.2827 119.196 69.1534C119.196 68.2301 119.456 67.4134 119.974 66.7031C120.5 65.9929 121.214 65.4354 122.116 65.0305C123.025 64.6257 124.054 64.4233 125.205 64.4233C126.824 64.4233 128.096 64.7784 129.019 65.4886C129.949 66.1989 130.61 67.1364 131 68.3011ZM141.944 81.3409C140.367 81.3409 139.007 80.9929 137.864 80.2969C136.728 79.5938 135.85 78.6136 135.233 77.3565C134.622 76.0923 134.316 74.6222 134.316 72.946C134.316 71.2699 134.622 69.7926 135.233 68.5142C135.85 67.2287 136.71 66.2273 137.811 65.5099C138.919 64.7855 140.211 64.4233 141.688 64.4233C142.541 64.4233 143.382 64.5653 144.213 64.8494C145.044 65.1335 145.801 65.5952 146.483 66.2344C147.164 66.8665 147.708 67.7045 148.112 68.7486C148.517 69.7926 148.72 71.0781 148.72 72.6051V73.6705H136.106V71.4972H146.163C146.163 70.5739 145.978 69.75 145.609 69.0256C145.247 68.3011 144.728 67.7294 144.054 67.3104C143.386 66.8913 142.598 66.6818 141.688 66.6818C140.687 66.6818 139.821 66.9304 139.089 67.4276C138.365 67.9176 137.807 68.5568 137.416 69.3452C137.026 70.1335 136.831 70.9787 136.831 71.8807V73.3295C136.831 74.5653 137.044 75.6129 137.47 76.4723C137.903 77.3246 138.503 77.9744 139.27 78.4219C140.037 78.8622 140.929 79.0824 141.944 79.0824C142.605 79.0824 143.201 78.9901 143.734 78.8054C144.274 78.6136 144.739 78.3295 145.13 77.9531C145.52 77.5696 145.822 77.0937 146.035 76.5256L148.464 77.2074C148.208 78.0312 147.779 78.7557 147.175 79.3807C146.571 79.9986 145.826 80.4815 144.938 80.8295C144.05 81.1705 143.052 81.3409 141.944 81.3409ZM48.0543 100.636V102.767H39.5742V100.636H48.0543ZM42.0458 96.7159H44.56V112.312C44.56 113.023 44.663 113.555 44.869 113.911C45.082 114.259 45.3519 114.493 45.6786 114.614C46.0124 114.727 46.364 114.784 46.7333 114.784C47.0103 114.784 47.2376 114.77 47.4151 114.741C47.5927 114.706 47.7347 114.678 47.8413 114.656L48.3526 116.915C48.1822 116.979 47.9442 117.043 47.6388 117.107C47.3335 117.178 46.9464 117.213 46.4776 117.213C45.7674 117.213 45.0714 117.06 44.3896 116.755C43.7148 116.45 43.1538 115.984 42.7063 115.359C42.266 114.734 42.0458 113.946 42.0458 112.994V96.7159ZM54.7021 107.156V117H52.1879V95.1818H54.7021V103.193H54.9151C55.2987 102.348 55.8739 101.677 56.641 101.18C57.4151 100.675 58.445 100.423 59.7305 100.423C60.8455 100.423 61.8221 100.647 62.6602 101.094C63.4982 101.535 64.1481 102.213 64.6097 103.129C65.0785 104.038 65.3129 105.196 65.3129 106.602V117H62.7987V106.773C62.7987 105.473 62.4613 104.468 61.7866 103.758C61.119 103.04 60.1921 102.682 59.006 102.682C58.1822 102.682 57.4435 102.856 56.7901 103.204C56.1438 103.552 55.6325 104.06 55.256 104.727C54.8867 105.395 54.7021 106.205 54.7021 107.156ZM76.7733 117.341C75.1966 117.341 73.8365 116.993 72.693 116.297C71.5566 115.594 70.6795 114.614 70.0616 113.357C69.4508 112.092 69.1454 110.622 69.1454 108.946C69.1454 107.27 69.4508 105.793 70.0616 104.514C70.6795 103.229 71.5389 102.227 72.6397 101.51C73.7477 100.786 75.0403 100.423 76.5176 100.423C77.3699 100.423 78.2115 100.565 79.0424 100.849C79.8734 101.134 80.6298 101.595 81.3116 102.234C81.9934 102.866 82.5368 103.705 82.9416 104.749C83.3464 105.793 83.5488 107.078 83.5488 108.605V109.67H70.9352V107.497H80.992C80.992 106.574 80.8074 105.75 80.438 105.026C80.0758 104.301 79.5574 103.729 78.8826 103.31C78.215 102.891 77.4267 102.682 76.5176 102.682C75.5162 102.682 74.6497 102.93 73.9181 103.428C73.1937 103.918 72.6362 104.557 72.2456 105.345C71.8549 106.134 71.6596 106.979 71.6596 107.881V109.33C71.6596 110.565 71.8727 111.613 72.2988 112.472C72.7321 113.325 73.3322 113.974 74.0993 114.422C74.8663 114.862 75.7576 115.082 76.7733 115.082C77.4338 115.082 78.0304 114.99 78.563 114.805C79.1028 114.614 79.568 114.33 79.9586 113.953C80.3493 113.57 80.6511 113.094 80.8642 112.526L83.2931 113.207C83.0375 114.031 82.6078 114.756 82.0041 115.381C81.4004 115.999 80.6547 116.482 79.7669 116.83C78.8791 117.17 77.8812 117.341 76.7733 117.341ZM95.8109 123.136V100.636H98.2399V103.236H98.5382C98.7228 102.952 98.9785 102.589 99.3052 102.149C99.639 101.702 100.115 101.304 100.733 100.956C101.358 100.601 102.203 100.423 103.268 100.423C104.646 100.423 105.861 100.768 106.912 101.457C107.963 102.146 108.783 103.122 109.373 104.386C109.962 105.651 110.257 107.142 110.257 108.861C110.257 110.594 109.962 112.096 109.373 113.367C108.783 114.631 107.966 115.612 106.922 116.308C105.878 116.996 104.675 117.341 103.311 117.341C102.26 117.341 101.418 117.167 100.786 116.819C100.154 116.464 99.6674 116.062 99.3265 115.615C98.9856 115.161 98.7228 114.784 98.5382 114.486H98.3251V123.136H95.8109ZM98.2825 108.818C98.2825 110.054 98.4636 111.144 98.8258 112.089C99.188 113.026 99.7172 113.761 100.413 114.294C101.109 114.82 101.961 115.082 102.97 115.082C104.021 115.082 104.898 114.805 105.601 114.251C106.312 113.69 106.844 112.937 107.199 111.993C107.562 111.041 107.743 109.983 107.743 108.818C107.743 107.668 107.565 106.631 107.21 105.707C106.862 104.777 106.333 104.042 105.623 103.502C104.92 102.955 104.035 102.682 102.97 102.682C101.947 102.682 101.088 102.941 100.392 103.46C99.6958 103.971 99.1703 104.688 98.8152 105.612C98.46 106.528 98.2825 107.597 98.2825 108.818ZM116.606 95.1818V117H114.092V95.1818H116.606ZM126.027 117.384C124.99 117.384 124.049 117.188 123.203 116.798C122.358 116.4 121.687 115.828 121.19 115.082C120.693 114.33 120.444 113.42 120.444 112.355C120.444 111.418 120.629 110.658 120.998 110.075C121.368 109.486 121.861 109.024 122.479 108.69C123.097 108.357 123.779 108.108 124.525 107.945C125.277 107.774 126.034 107.639 126.794 107.54C127.788 107.412 128.594 107.316 129.212 107.252C129.837 107.181 130.292 107.064 130.576 106.901C130.867 106.737 131.012 106.453 131.012 106.048V105.963C131.012 104.912 130.725 104.095 130.15 103.513C129.581 102.93 128.718 102.639 127.561 102.639C126.36 102.639 125.419 102.902 124.738 103.428C124.056 103.953 123.576 104.514 123.299 105.111L120.913 104.259C121.339 103.264 121.907 102.49 122.618 101.936C123.335 101.375 124.116 100.984 124.961 100.764C125.814 100.537 126.652 100.423 127.475 100.423C128.001 100.423 128.605 100.487 129.287 100.615C129.975 100.736 130.64 100.988 131.279 101.371C131.925 101.755 132.461 102.334 132.887 103.108C133.314 103.882 133.527 104.919 133.527 106.219V117H131.012V114.784H130.885C130.714 115.139 130.43 115.519 130.032 115.924C129.635 116.329 129.105 116.673 128.445 116.957C127.784 117.241 126.978 117.384 126.027 117.384ZM126.41 115.125C127.404 115.125 128.243 114.93 128.924 114.539C129.613 114.148 130.132 113.644 130.48 113.026C130.835 112.408 131.012 111.759 131.012 111.077V108.776C130.906 108.903 130.672 109.021 130.309 109.127C129.954 109.227 129.542 109.315 129.074 109.393C128.612 109.464 128.161 109.528 127.721 109.585C127.287 109.635 126.936 109.678 126.666 109.713C126.012 109.798 125.402 109.937 124.833 110.129C124.272 110.313 123.818 110.594 123.47 110.97C123.129 111.339 122.958 111.844 122.958 112.483C122.958 113.357 123.282 114.017 123.928 114.464C124.581 114.905 125.409 115.125 126.41 115.125ZM140.63 107.156V117H138.116V100.636H140.545V103.193H140.758C141.141 102.362 141.724 101.695 142.505 101.19C143.286 100.679 144.295 100.423 145.53 100.423C146.638 100.423 147.608 100.651 148.439 101.105C149.27 101.553 149.916 102.234 150.378 103.151C150.839 104.06 151.07 105.21 151.07 106.602V117H148.556V106.773C148.556 105.487 148.222 104.486 147.555 103.768C146.887 103.044 145.971 102.682 144.806 102.682C144.003 102.682 143.286 102.856 142.654 103.204C142.029 103.552 141.535 104.06 141.173 104.727C140.811 105.395 140.63 106.205 140.63 107.156Z" fill="white"/>
<defs>
<linearGradient id="paint0_linear_1_150" x1="77" y1="51.5" x2="155.5" y2="157" gradientUnits="userSpaceOnUse">
<stop stop-color="white"/>
<stop offset="1" stop-color="white" stop-opacity="0"/>
</linearGradient>
</defs>
</svg>
