<svg width="192" height="192" viewBox="0 0 192 192" fill="none" xmlns="http://www.w3.org/2000/svg">
<circle cx="96" cy="96" r="95.5" fill="white" fill-opacity="0.4" stroke="url(#paint0_linear_1_151)"/>
<path d="M60.7332 81H57.9633L65.9747 59.1818H68.702L76.7133 81H73.9434L67.4236 62.6335H67.2531L60.7332 81ZM61.7559 72.4773H72.9207V74.821H61.7559V72.4773ZM91.3618 68.3011L89.1032 68.9403C88.9612 68.5639 88.7517 68.1982 88.4747 67.843C88.2048 67.4808 87.8355 67.1825 87.3667 66.9482C86.898 66.7138 86.2979 66.5966 85.5663 66.5966C84.5649 66.5966 83.7304 66.8274 83.0628 67.2891C82.4023 67.7436 82.072 68.3224 82.072 69.0256C82.072 69.6506 82.2993 70.1442 82.7538 70.5064C83.2084 70.8686 83.9186 71.1705 84.8845 71.4119L87.3135 72.0085C88.7765 72.3636 89.8667 72.907 90.5841 73.6385C91.3014 74.3629 91.6601 75.2969 91.6601 76.4403C91.6601 77.3778 91.3902 78.2159 90.8504 78.9545C90.3177 79.6932 89.572 80.2756 88.6132 80.7017C87.6544 81.1278 86.5393 81.3409 85.268 81.3409C83.599 81.3409 82.2176 80.9787 81.1238 80.2543C80.0301 79.5298 79.3376 78.4716 79.0464 77.0795L81.4328 76.483C81.6601 77.3636 82.0898 78.0241 82.7219 78.4645C83.3611 78.9048 84.1956 79.125 85.2254 79.125C86.3973 79.125 87.3277 78.8764 88.0166 78.3793C88.7126 77.875 89.0606 77.2713 89.0606 76.5682C89.0606 76 88.8618 75.5241 88.464 75.1406C88.0663 74.75 87.4555 74.4588 86.6317 74.267L83.9044 73.6278C82.4058 73.2727 81.305 72.7223 80.6018 71.9766C79.9058 71.2237 79.5578 70.2827 79.5578 69.1534C79.5578 68.2301 79.817 67.4134 80.3355 66.7031C80.8611 65.9929 81.5748 65.4354 82.4768 65.0305C83.3859 64.6257 84.4157 64.4233 85.5663 64.4233C87.1856 64.4233 88.4569 64.7784 89.3802 65.4886C90.3106 66.1989 90.9711 67.1364 91.3618 68.3011ZM97.7884 75.0341L97.7458 71.9233H98.2572L105.416 64.6364H108.527L100.899 72.3494H100.686L97.7884 75.0341ZM95.4447 81V59.1818H97.9589V81H95.4447ZM105.842 81L99.4504 72.9034L101.24 71.1562L109.038 81H105.842ZM125.016 81.3835C123.979 81.3835 123.038 81.1882 122.193 80.7976C121.348 80.3999 120.676 79.8281 120.179 79.0824C119.682 78.3295 119.434 77.4205 119.434 76.3551C119.434 75.4176 119.618 74.6577 119.987 74.0753C120.357 73.4858 120.85 73.0241 121.468 72.6903C122.086 72.3565 122.768 72.108 123.514 71.9446C124.267 71.7741 125.023 71.6392 125.783 71.5398C126.777 71.4119 127.583 71.3161 128.201 71.2521C128.826 71.1811 129.281 71.0639 129.565 70.9006C129.856 70.7372 130.002 70.4531 130.002 70.0483V69.9631C130.002 68.9119 129.714 68.0952 129.139 67.5128C128.571 66.9304 127.708 66.6392 126.55 66.6392C125.35 66.6392 124.409 66.902 123.727 67.4276C123.045 67.9531 122.566 68.5142 122.289 69.1108L119.902 68.2585C120.328 67.2642 120.897 66.4901 121.607 65.9361C122.324 65.375 123.105 64.9844 123.951 64.7642C124.803 64.5369 125.641 64.4233 126.465 64.4233C126.99 64.4233 127.594 64.4872 128.276 64.6151C128.965 64.7358 129.629 64.9879 130.268 65.3714C130.914 65.755 131.451 66.3338 131.877 67.108C132.303 67.8821 132.516 68.919 132.516 70.2188V81H130.002V78.7841H129.874C129.703 79.1392 129.419 79.5192 129.022 79.924C128.624 80.3288 128.095 80.6733 127.434 80.9574C126.774 81.2415 125.968 81.3835 125.016 81.3835ZM125.399 79.125C126.394 79.125 127.232 78.9297 127.914 78.5391C128.603 78.1484 129.121 77.6442 129.469 77.0263C129.824 76.4084 130.002 75.7585 130.002 75.0767V72.7756C129.895 72.9034 129.661 73.0206 129.299 73.1271C128.943 73.2266 128.532 73.3153 128.063 73.3935C127.601 73.4645 127.15 73.5284 126.71 73.5852C126.277 73.6349 125.925 73.6776 125.655 73.7131C125.002 73.7983 124.391 73.9368 123.823 74.1286C123.262 74.3132 122.807 74.5937 122.459 74.9702C122.118 75.3395 121.948 75.8437 121.948 76.483C121.948 77.3565 122.271 78.017 122.917 78.4645C123.571 78.9048 124.398 79.125 125.399 79.125ZM43.1258 110.182H46.0235L48.4525 113.378L49.0917 114.23L52.7139 119.045H49.8161L47.4298 115.849L46.8332 115.04L43.1258 110.182ZM53.6088 106.091C53.6088 108.392 53.1933 110.381 52.3623 112.057C51.5313 113.733 50.3914 115.026 48.9426 115.935C47.4937 116.844 45.8389 117.298 43.9781 117.298C42.1173 117.298 40.4624 116.844 39.0136 115.935C37.5647 115.026 36.4248 113.733 35.5938 112.057C34.7629 110.381 34.3474 108.392 34.3474 106.091C34.3474 103.79 34.7629 101.801 35.5938 100.125C36.4248 98.4489 37.5647 97.1562 39.0136 96.2472C40.4624 95.3381 42.1173 94.8835 43.9781 94.8835C45.8389 94.8835 47.4937 95.3381 48.9426 96.2472C50.3914 97.1562 51.5313 98.4489 52.3623 100.125C53.1933 101.801 53.6088 103.79 53.6088 106.091ZM51.0519 106.091C51.0519 104.202 50.7359 102.607 50.1038 101.308C49.4788 100.008 48.6301 99.0241 47.5576 98.3565C46.4923 97.6889 45.2991 97.3551 43.9781 97.3551C42.657 97.3551 41.4603 97.6889 40.3879 98.3565C39.3225 99.0241 38.4738 100.008 37.8417 101.308C37.2167 102.607 36.9042 104.202 36.9042 106.091C36.9042 107.98 37.2167 109.575 37.8417 110.874C38.4738 112.174 39.3225 113.158 40.3879 113.825C41.4603 114.493 42.657 114.827 43.9781 114.827C45.2991 114.827 46.4923 114.493 47.5576 113.825C48.6301 113.158 49.4788 112.174 50.1038 110.874C50.7359 109.575 51.0519 107.98 51.0519 106.091ZM68.0228 110.31V100.636H70.537V117H68.0228V114.23H67.8524C67.4688 115.061 66.8722 115.768 66.0626 116.35C65.2529 116.925 64.2302 117.213 62.9944 117.213C61.9717 117.213 61.0626 116.989 60.2671 116.542C59.4717 116.087 58.8467 115.406 58.3921 114.496C57.9376 113.58 57.7103 112.426 57.7103 111.034V100.636H60.2245V110.864C60.2245 112.057 60.5583 113.009 61.2259 113.719C61.9007 114.429 62.76 114.784 63.8041 114.784C64.4291 114.784 65.0647 114.624 65.711 114.305C66.3644 113.985 66.9113 113.495 67.3517 112.835C67.7991 112.174 68.0228 111.332 68.0228 110.31ZM82.0028 117.341C80.426 117.341 79.066 116.993 77.9225 116.297C76.7861 115.594 75.909 114.614 75.2911 113.357C74.6803 112.092 74.3749 110.622 74.3749 108.946C74.3749 107.27 74.6803 105.793 75.2911 104.514C75.909 103.229 76.7684 102.227 77.8692 101.51C78.9772 100.786 80.2698 100.423 81.7471 100.423C82.5993 100.423 83.441 100.565 84.2719 100.849C85.1029 101.134 85.8593 101.595 86.5411 102.234C87.2229 102.866 87.7662 103.705 88.1711 104.749C88.5759 105.793 88.7783 107.078 88.7783 108.605V109.67H76.1647V107.497H86.2215C86.2215 106.574 86.0368 105.75 85.6675 105.026C85.3053 104.301 84.7868 103.729 84.1121 103.31C83.4445 102.891 82.6562 102.682 81.7471 102.682C80.7456 102.682 79.8792 102.93 79.1476 103.428C78.4232 103.918 77.8657 104.557 77.4751 105.345C77.0844 106.134 76.8891 106.979 76.8891 107.881V109.33C76.8891 110.565 77.1022 111.613 77.5283 112.472C77.9616 113.325 78.5617 113.974 79.3287 114.422C80.0958 114.862 80.9871 115.082 82.0028 115.082C82.6633 115.082 83.2599 114.99 83.7925 114.805C84.3323 114.614 84.7975 114.33 85.1881 113.953C85.5787 113.57 85.8806 113.094 86.0937 112.526L88.5226 113.207C88.267 114.031 87.8373 114.756 87.2336 115.381C86.6299 115.999 85.8841 116.482 84.9964 116.83C84.1086 117.17 83.1107 117.341 82.0028 117.341ZM104.194 104.301L101.935 104.94C101.793 104.564 101.584 104.198 101.307 103.843C101.037 103.481 100.668 103.183 100.199 102.948C99.73 102.714 99.1299 102.597 98.3983 102.597C97.3969 102.597 96.5624 102.827 95.8948 103.289C95.2343 103.744 94.904 104.322 94.904 105.026C94.904 105.651 95.1313 106.144 95.5858 106.506C96.0404 106.869 96.7506 107.17 97.7165 107.412L100.146 108.009C101.609 108.364 102.699 108.907 103.416 109.638C104.133 110.363 104.492 111.297 104.492 112.44C104.492 113.378 104.222 114.216 103.682 114.955C103.15 115.693 102.404 116.276 101.445 116.702C100.486 117.128 99.3714 117.341 98.1001 117.341C96.431 117.341 95.0496 116.979 93.9559 116.254C92.8621 115.53 92.1697 114.472 91.8785 113.08L94.2648 112.483C94.4921 113.364 94.9218 114.024 95.5539 114.464C96.1931 114.905 97.0276 115.125 98.0574 115.125C99.2293 115.125 100.16 114.876 100.849 114.379C101.545 113.875 101.893 113.271 101.893 112.568C101.893 112 101.694 111.524 101.296 111.141C100.898 110.75 100.288 110.459 99.4637 110.267L96.7364 109.628C95.2378 109.273 94.137 108.722 93.4339 107.977C92.7378 107.224 92.3898 106.283 92.3898 105.153C92.3898 104.23 92.6491 103.413 93.1675 102.703C93.6931 101.993 94.4069 101.435 95.3089 101.031C96.218 100.626 97.2478 100.423 98.3983 100.423C100.018 100.423 101.289 100.778 102.212 101.489C103.143 102.199 103.803 103.136 104.194 104.301ZM115.393 100.636V102.767H106.913V100.636H115.393ZM109.385 96.7159H111.899V112.312C111.899 113.023 112.002 113.555 112.208 113.911C112.421 114.259 112.691 114.493 113.017 114.614C113.351 114.727 113.703 114.784 114.072 114.784C114.349 114.784 114.576 114.77 114.754 114.741C114.932 114.706 115.074 114.678 115.18 114.656L115.691 116.915C115.521 116.979 115.283 117.043 114.978 117.107C114.672 117.178 114.285 117.213 113.816 117.213C113.106 117.213 112.41 117.06 111.728 116.755C111.054 116.45 110.493 115.984 110.045 115.359C109.605 114.734 109.385 113.946 109.385 112.994V96.7159ZM119.175 117V100.636H121.689V117H119.175ZM120.454 97.9091C119.964 97.9091 119.541 97.7422 119.186 97.4084C118.838 97.0746 118.664 96.6733 118.664 96.2045C118.664 95.7358 118.838 95.3345 119.186 95.0007C119.541 94.6669 119.964 94.5 120.454 94.5C120.944 94.5 121.363 94.6669 121.711 95.0007C122.066 95.3345 122.243 95.7358 122.243 96.2045C122.243 96.6733 122.066 97.0746 121.711 97.4084C121.363 97.7422 120.944 97.9091 120.454 97.9091ZM132.942 117.341C131.465 117.341 130.169 116.989 129.054 116.286C127.946 115.583 127.079 114.599 126.454 113.335C125.836 112.071 125.527 110.594 125.527 108.903C125.527 107.199 125.836 105.711 126.454 104.44C127.079 103.168 127.946 102.181 129.054 101.478C130.169 100.775 131.465 100.423 132.942 100.423C134.419 100.423 135.712 100.775 136.82 101.478C137.935 102.181 138.801 103.168 139.419 104.44C140.044 105.711 140.357 107.199 140.357 108.903C140.357 110.594 140.044 112.071 139.419 113.335C138.801 114.599 137.935 115.583 136.82 116.286C135.712 116.989 134.419 117.341 132.942 117.341ZM132.942 115.082C134.064 115.082 134.987 114.795 135.712 114.219C136.436 113.644 136.973 112.888 137.321 111.95C137.669 111.013 137.843 109.997 137.843 108.903C137.843 107.81 137.669 106.79 137.321 105.846C136.973 104.901 136.436 104.138 135.712 103.555C134.987 102.973 134.064 102.682 132.942 102.682C131.82 102.682 130.897 102.973 130.172 103.555C129.448 104.138 128.911 104.901 128.563 105.846C128.215 106.79 128.041 107.81 128.041 108.903C128.041 109.997 128.215 111.013 128.563 111.95C128.911 112.888 129.448 113.644 130.172 114.219C130.897 114.795 131.82 115.082 132.942 115.082ZM146.709 107.156V117H144.195V100.636H146.624V103.193H146.837C147.22 102.362 147.803 101.695 148.584 101.19C149.365 100.679 150.374 100.423 151.609 100.423C152.717 100.423 153.687 100.651 154.518 101.105C155.349 101.553 155.995 102.234 156.457 103.151C156.918 104.06 157.149 105.21 157.149 106.602V117H154.635V106.773C154.635 105.487 154.301 104.486 153.634 103.768C152.966 103.044 152.05 102.682 150.885 102.682C150.082 102.682 149.365 102.856 148.733 103.204C148.108 103.552 147.614 104.06 147.252 104.727C146.89 105.395 146.709 106.205 146.709 107.156Z" fill="#0D224E"/>
<defs>
<linearGradient id="paint0_linear_1_151" x1="77" y1="51.5" x2="155.5" y2="157" gradientUnits="userSpaceOnUse">
<stop stop-color="white"/>
<stop offset="1" stop-color="white" stop-opacity="0"/>
</linearGradient>
</defs>
</svg>
